<svg width="25" height="25" viewBox="0 0 25 25" fill="none" xmlns="http://www.w3.org/2000/svg">
<g clip-path="url(#clip0_2_244)">
<path d="M0.833344 7.5L12.5 14.1667L24.1667 7.5M2.50001 2.5H22.5C22.942 2.5 23.366 2.67559 23.6785 2.98816C23.9911 3.30072 24.1667 3.72464 24.1667 4.16667V20.8333C24.1667 21.2754 23.9911 21.6993 23.6785 22.0118C23.366 22.3244 22.942 22.5 22.5 22.5H2.50001C2.05798 22.5 1.63406 22.3244 1.3215 22.0118C1.00894 21.6993 0.833344 21.2754 0.833344 20.8333V4.16667C0.833344 3.72464 1.00894 3.30072 1.3215 2.98816C1.63406 2.67559 2.05798 2.5 2.50001 2.5Z" stroke="white" stroke-width="2"/>
</g>
<defs>
<clipPath id="clip0_2_244">
<rect width="25" height="25" fill="white"/>
</clipPath>
</defs>
</svg>
