<svg width="45" height="45" viewBox="0 0 45 45" fill="none" xmlns="http://www.w3.org/2000/svg">
<path d="M41.0098 1.698H3.99375C2.72587 1.698 1.69804 2.72582 1.69804 3.9937V41.0097C1.69804 42.2776 2.72587 43.3054 3.99375 43.3054H41.0098C42.2776 43.3054 43.3055 42.2776 43.3055 41.0097V3.9937C43.3055 2.72582 42.2776 1.698 41.0098 1.698Z" fill="#1877F2"/>
<path d="M30.4031 43.3018V27.1897H35.8102L36.6188 20.9108H30.4031V16.903C30.4031 15.0854 30.9094 13.8444 33.5145 13.8444H36.8402V8.21942C35.2298 8.05158 33.6114 7.97178 31.9922 7.98036C27.2039 7.98036 23.9063 10.8983 23.9063 16.2808V20.9108H18.4992V27.1897H23.9063V43.3018H30.4031Z" fill="white"/>
</svg>
