<svg width="47" height="45" viewBox="0 0 47 45" fill="none" xmlns="http://www.w3.org/2000/svg">
<path d="M23.0697 0C10.3303 0 0 10.3285 0 23.0697C0 33.2624 6.61013 41.9101 15.7765 44.9605C16.9294 45.174 17.3528 44.46 17.3528 43.8506C17.3528 43.3005 17.3311 41.4833 17.3214 39.5557C10.9034 40.9511 9.54915 36.8337 9.54915 36.8337C8.49967 34.1672 6.98754 33.458 6.98754 33.458C4.89452 32.0262 7.14542 32.0558 7.14542 32.0558C9.46192 32.2184 10.6817 34.433 10.6817 34.433C12.7394 37.9598 16.0787 36.9402 17.3951 36.3507C17.6022 34.8598 18.2 33.8419 18.8599 33.2659C13.7357 32.6826 8.34918 30.7044 8.34918 21.8648C8.34918 19.3461 9.25033 17.2881 10.7261 15.6725C10.4865 15.0914 9.69694 12.7452 10.9495 9.56735C10.9495 9.56735 12.8868 8.94736 17.2955 11.9322C19.1356 11.421 21.1091 11.1647 23.0697 11.1559C25.0302 11.1647 27.0054 11.4208 28.849 11.9322C33.2522 8.94754 35.1868 9.56753 35.1868 9.56753C36.4424 12.745 35.6525 15.0916 35.4129 15.6725C36.8921 17.2881 37.7871 19.3461 37.7871 21.8648C37.7871 30.7255 32.3903 32.6765 27.2532 33.2477C28.0806 33.9635 28.818 35.3675 28.818 37.5198C28.818 40.6065 28.7913 43.0908 28.7913 43.8506C28.7913 44.4647 29.2065 45.184 30.3759 44.9572C39.5372 41.9036 46.139 33.2592 46.139 23.0699C46.139 10.3285 35.8102 0 23.0697 0ZM8.64043 32.8632C8.5896 32.9778 8.40919 33.0123 8.245 32.9335C8.07757 32.8584 7.98367 32.7021 8.03774 32.5871C8.08748 32.4691 8.26825 32.4361 8.43515 32.5152C8.60276 32.5905 8.69828 32.7482 8.64043 32.8632ZM9.77516 33.8758C9.66522 33.9778 9.45002 33.9304 9.30404 33.7692C9.15318 33.6085 9.12489 33.3933 9.23645 33.2898C9.35 33.1878 9.55852 33.2356 9.70974 33.3963C9.86077 33.5591 9.88997 33.7727 9.77516 33.8758ZM10.5538 35.1713C10.4123 35.2695 10.1812 35.1774 10.0383 34.9723C9.897 34.7672 9.897 34.5212 10.0414 34.4226C10.1846 34.324 10.4123 34.4127 10.557 34.6163C10.6979 34.8249 10.6979 35.0709 10.5536 35.1714L10.5538 35.1713ZM11.8702 36.6717C11.7438 36.8112 11.4744 36.7737 11.2772 36.5834C11.0755 36.3974 11.0195 36.1335 11.1464 35.994C11.2743 35.8541 11.5452 35.8934 11.7438 36.0823C11.9439 36.268 12.0052 36.5338 11.8702 36.6717ZM13.5719 37.1781C13.516 37.3589 13.2565 37.4411 12.9953 37.3643C12.7344 37.2852 12.5637 37.0736 12.6163 36.891C12.6706 36.709 12.9312 36.6236 13.1943 36.7057C13.4549 36.7843 13.6261 36.9943 13.5719 37.1781ZM15.5083 37.3931C15.5148 37.5833 15.2933 37.741 15.019 37.7446C14.7432 37.7507 14.5199 37.5968 14.5168 37.4094C14.5168 37.2174 14.7335 37.0612 15.0094 37.0565C15.2837 37.0511 15.5083 37.2039 15.5083 37.3931ZM17.4106 37.3201C17.4434 37.5058 17.2529 37.6965 16.9804 37.7473C16.7128 37.7961 16.4648 37.6815 16.4307 37.4975C16.3975 37.3072 16.5917 37.1165 16.8589 37.0673C17.1318 37.0199 17.3758 37.1314 17.4106 37.3201Z" fill="white"/>
</svg>
