<svg width="45" height="46" viewBox="0 0 45 46" fill="none" xmlns="http://www.w3.org/2000/svg">
<path d="M27.6463 34.25H30.3989C31.2877 34.25 32.1401 33.8969 32.7685 33.2685C33.3969 32.6401 33.75 31.7877 33.75 30.8989V28.1463M33.75 17.8537V15.1011C33.75 14.2123 33.3969 13.36 32.7685 12.7315C32.1401 12.1031 31.2877 11.75 30.3989 11.75H27.6463M17.3537 34.25H14.6011C13.7123 34.25 12.86 33.8969 12.2315 33.2685C11.6031 32.6401 11.25 31.7877 11.25 30.8989V28.1463M11.25 17.8537V15.1011C11.25 14.2123 11.6031 13.36 12.2315 12.7315C12.86 12.1031 13.7123 11.75 14.6011 11.75H17.3537" stroke="#E2E2E2" stroke-width="3.36138" stroke-linecap="round" stroke-linejoin="round"/>
<circle cx="22.5439" cy="23.0439" r="5.92927" stroke="#E2E2E2" stroke-width="2.29185"/>
</svg>
