<svg width="45" height="45" viewBox="0 0 45 45" fill="none" xmlns="http://www.w3.org/2000/svg">
<g clip-path="url(#clip0_2_194)">
<path d="M34.4531 0H10.5469C4.722 0 0 4.722 0 10.5469V34.4531C0 40.278 4.722 45 10.5469 45H34.4531C40.278 45 45 40.278 45 34.4531V10.5469C45 4.722 40.278 0 34.4531 0Z" fill="url(#paint0_radial_2_194)"/>
<path d="M34.4531 0H10.5469C4.722 0 0 4.722 0 10.5469V34.4531C0 40.278 4.722 45 10.5469 45H34.4531C40.278 45 45 40.278 45 34.4531V10.5469C45 4.722 40.278 0 34.4531 0Z" fill="url(#paint1_radial_2_194)"/>
<path d="M22.5016 4.92188C17.7277 4.92188 17.1285 4.94279 15.2536 5.02805C13.3822 5.11383 12.1048 5.41002 10.9872 5.84473C9.83092 6.29367 8.85023 6.89432 7.87324 7.87166C6.89537 8.84883 6.29473 9.82951 5.84438 10.9853C5.40844 12.1032 5.11189 13.3812 5.0277 15.2517C4.94385 17.1267 4.92188 17.7261 4.92188 22.5002C4.92188 27.2742 4.94297 27.8715 5.02805 29.7464C5.11418 31.6178 5.41037 32.8952 5.84473 34.0128C6.29402 35.1691 6.89467 36.1498 7.87201 37.1268C8.84883 38.1046 9.82951 38.7067 10.9849 39.1556C12.1034 39.5903 13.381 39.8865 15.252 39.9723C17.1271 40.0576 17.7258 40.0785 22.4995 40.0785C27.2739 40.0785 27.8712 40.0576 29.7461 39.9723C31.6174 39.8865 32.8962 39.5903 34.0147 39.1556C35.1705 38.7067 36.1498 38.1046 37.1264 37.1268C38.1043 36.1498 38.7047 35.1691 39.1553 34.0133C39.5873 32.8952 39.8841 31.6174 39.972 29.7468C40.0562 27.8719 40.0781 27.2742 40.0781 22.5002C40.0781 17.7261 40.0562 17.1271 39.972 15.252C39.8841 13.3806 39.5873 12.1034 39.1553 10.9858C38.7047 9.82951 38.1043 8.84883 37.1264 7.87166C36.1487 6.89396 35.1708 6.29332 34.0137 5.8449C32.8931 5.41002 31.615 5.11365 29.7436 5.02805C27.8685 4.94279 27.2716 4.92188 22.4961 4.92188H22.5016ZM20.9246 8.08963C21.3928 8.08893 21.915 8.08963 22.5016 8.08963C27.1951 8.08963 27.7513 8.1065 29.6047 8.1907C31.3186 8.2691 32.2488 8.55545 32.8685 8.79609C33.6888 9.11461 34.2737 9.49553 34.8885 10.1109C35.5038 10.7262 35.8845 11.3121 36.2039 12.1324C36.4446 12.7512 36.7313 13.6814 36.8093 15.3953C36.8935 17.2484 36.9118 17.8049 36.9118 22.4961C36.9118 27.1874 36.8935 27.7441 36.8093 29.597C36.7309 31.3109 36.4446 32.2411 36.2039 32.86C35.8854 33.6804 35.5038 34.2645 34.8885 34.8794C34.2733 35.4946 33.6892 35.8754 32.8685 36.1941C32.2495 36.4358 31.3186 36.7214 29.6047 36.7998C27.7516 36.884 27.1951 36.9023 22.5016 36.9023C17.8079 36.9023 17.2515 36.884 15.3986 36.7998C13.6847 36.7207 12.7545 36.4344 12.1344 36.1937C11.3142 35.875 10.7281 35.4943 10.1129 34.879C9.49764 34.2638 9.11689 33.6793 8.7975 32.8586C8.55686 32.2397 8.27016 31.3095 8.19211 29.5956C8.10791 27.7425 8.09104 27.186 8.09104 22.4917C8.09104 17.7977 8.10791 17.244 8.19211 15.3909C8.27051 13.677 8.55686 12.7468 8.7975 12.1271C9.11619 11.3068 9.49764 10.7209 10.113 10.1057C10.7283 9.49043 11.3142 9.10951 12.1345 8.79029C12.7542 8.54859 13.6847 8.26295 15.3986 8.1842C17.0202 8.1109 17.6486 8.08893 20.9246 8.08523V8.08963ZM31.8848 11.0083C30.7202 11.0083 29.7754 11.9522 29.7754 13.117C29.7754 14.2815 30.7202 15.2263 31.8848 15.2263C33.0493 15.2263 33.9942 14.2815 33.9942 13.117C33.9942 11.9524 33.0493 11.0076 31.8848 11.0076V11.0083ZM22.5016 13.4729C17.5164 13.4729 13.4745 17.5148 13.4745 22.5002C13.4745 27.4855 17.5164 31.5255 22.5016 31.5255C27.4869 31.5255 31.5274 27.4855 31.5274 22.5002C31.5274 17.515 27.4866 13.4729 22.5012 13.4729H22.5016ZM22.5016 16.6407C25.7375 16.6407 28.3611 19.2639 28.3611 22.5002C28.3611 25.7361 25.7375 28.3597 22.5016 28.3597C19.2654 28.3597 16.6423 25.7361 16.6423 22.5002C16.6423 19.2639 19.2654 16.6407 22.5016 16.6407Z" fill="white"/>
</g>
<defs>
<radialGradient id="paint0_radial_2_194" cx="0" cy="0" r="1" gradientUnits="userSpaceOnUse" gradientTransform="translate(11.9531 48.4659) rotate(-90) scale(44.5983 41.48)">
<stop stop-color="#FFDD55"/>
<stop offset="0.1" stop-color="#FFDD55"/>
<stop offset="0.5" stop-color="#FF543E"/>
<stop offset="1" stop-color="#C837AB"/>
</radialGradient>
<radialGradient id="paint1_radial_2_194" cx="0" cy="0" r="1" gradientUnits="userSpaceOnUse" gradientTransform="translate(-7.53768 3.24158) rotate(78.681) scale(19.9357 82.1756)">
<stop stop-color="#3771C8"/>
<stop offset="0.128" stop-color="#3771C8"/>
<stop offset="1" stop-color="#6600FF" stop-opacity="0"/>
</radialGradient>
<clipPath id="clip0_2_194">
<rect width="45" height="45" fill="white"/>
</clipPath>
</defs>
</svg>
