<svg width="45" height="45" viewBox="0 0 45 45" fill="none" xmlns="http://www.w3.org/2000/svg">
<g clip-path="url(#clip0_2_199)">
<path d="M34.4531 0H10.5469C4.722 0 0 4.722 0 10.5469V34.4531C0 40.278 4.722 45 10.5469 45H34.4531C40.278 45 45 40.278 45 34.4531V10.5469C45 4.722 40.278 0 34.4531 0Z" fill="white"/>
<path d="M34.4531 0H10.5469C4.722 0 0 4.722 0 10.5469V34.4531C0 40.278 4.722 45 10.5469 45H34.4531C40.278 45 45 40.278 45 34.4531V10.5469C45 4.722 40.278 0 34.4531 0Z" fill="#0A66C2"/>
<path d="M32.4694 38.2649H37.6146C37.801 38.2649 37.9798 38.1909 38.1117 38.0591C38.2435 37.9272 38.3176 37.7484 38.3177 37.562L38.3203 26.6913C38.3203 21.0095 37.096 16.6423 30.4562 16.6423C27.9322 16.5484 25.5519 17.8495 24.2675 20.0222C24.2612 20.0327 24.2516 20.041 24.2403 20.0456C24.2289 20.0502 24.2163 20.0509 24.2044 20.0477C24.1926 20.0445 24.1821 20.0375 24.1746 20.0278C24.1671 20.0181 24.163 20.0062 24.1629 19.9939V17.8699C24.1629 17.6834 24.0888 17.5046 23.9569 17.3727C23.8251 17.2409 23.6462 17.1668 23.4598 17.1668H18.5771C18.3906 17.1668 18.2118 17.2409 18.0799 17.3727C17.948 17.5046 17.874 17.6834 17.874 17.8699V37.5609C17.874 37.7474 17.948 37.9263 18.0799 38.0581C18.2118 38.19 18.3906 38.2641 18.5771 38.2641H23.7219C23.9083 38.2641 24.0872 38.19 24.219 38.0581C24.3509 37.9263 24.425 37.7474 24.425 37.5609V27.8274C24.425 25.0752 24.9471 22.4098 28.3591 22.4098C31.7227 22.4098 31.7663 25.5591 31.7663 28.0056V37.5618C31.7663 37.7483 31.8404 37.9271 31.9722 38.059C32.1041 38.1909 32.283 38.2649 32.4694 38.2649ZM6.67969 10.4813C6.67969 12.567 8.39654 14.2829 10.4822 14.2829C12.5673 14.2828 14.2831 12.5657 14.2831 10.4806C14.2828 8.39549 12.5668 6.67969 10.4815 6.67969C8.39566 6.67969 6.67969 8.39584 6.67969 10.4813ZM7.90295 38.2649H13.0546C13.2411 38.2649 13.4199 38.1909 13.5518 38.059C13.6836 37.9271 13.7577 37.7483 13.7577 37.5618V17.8699C13.7577 17.6834 13.6836 17.5046 13.5518 17.3727C13.4199 17.2409 13.2411 17.1668 13.0546 17.1668H7.90295C7.71647 17.1668 7.53763 17.2409 7.40576 17.3727C7.2739 17.5046 7.19982 17.6834 7.19982 17.8699V37.5618C7.19982 37.7483 7.2739 37.9271 7.40576 38.059C7.53763 38.1909 7.71647 38.2649 7.90295 38.2649Z" fill="white"/>
</g>
<defs>
<clipPath id="clip0_2_199">
<rect width="45" height="45" fill="white"/>
</clipPath>
</defs>
</svg>
