<svg width="55" height="56" viewBox="0 0 55 56" fill="none" xmlns="http://www.w3.org/2000/svg">
<circle cx="27.5" cy="28" r="27.5" fill="#150A0A"/>
<path d="M43.0041 21.5C45.211 21.5 47.0246 23.2952 46.7694 25.4872C46.1387 30.9064 44.2331 35.9587 41.2886 39.8848C37.6316 44.7607 32.6717 47.5 27.5 47.5C22.3283 47.5 17.3684 44.7607 13.7114 39.8848C10.7676 35.9597 8.86226 30.909 8.23106 25.4913C7.9754 23.297 9.79086 21.5 12 21.5C13.8893 21.5 15.3914 23.0416 15.6942 24.9065C16.1811 27.9067 17.3056 30.6841 18.9588 32.8883C21.2241 35.9086 24.2964 37.6054 27.5 37.6054C30.7036 37.6054 33.7759 35.9086 36.0412 32.8883C37.6936 30.6851 38.8178 27.9092 39.3052 24.9106C39.6086 23.0435 41.1125 21.5 43.0041 21.5Z" fill="white"/>
<circle cx="28" cy="17.5" r="5" fill="white"/>
</svg>
