<svg width="15" height="16" viewBox="0 0 35 36" fill="none" xmlns="http://www.w3.org/2000/svg">
<path d="M31.7857 29.9642L25.293 23.4687C27.2397 20.9319 28.1486 17.7495 27.8352 14.5672C27.5219 11.3848 26.0098 8.44085 23.6056 6.3324C21.2015 4.22395 18.0854 3.10893 14.8894 3.21353C11.6933 3.31813 8.65678 4.63451 6.39565 6.89565C4.13451 9.15678 2.81813 12.1933 2.71353 15.3894C2.60893 18.5854 3.72395 21.7015 5.8324 24.1056C7.94085 26.5098 10.8848 28.0219 14.0672 28.3352C17.2495 28.6486 20.4319 27.7397 22.9687 25.793L29.467 32.2926C29.6196 32.4452 29.8008 32.5662 30.0002 32.6488C30.1996 32.7314 30.4133 32.7739 30.6291 32.7739C30.8449 32.7739 31.0586 32.7314 31.258 32.6488C31.4574 32.5662 31.6386 32.4452 31.7912 32.2926C31.9438 32.14 32.0649 31.9588 32.1475 31.7594C32.2301 31.56 32.2726 31.3463 32.2726 31.1305C32.2726 30.9146 32.2301 30.7009 32.1475 30.5015C32.0649 30.3021 31.9438 30.121 31.7912 29.9684L31.7857 29.9642ZM6.01562 15.8125C6.01562 13.9737 6.56087 12.1763 7.58243 10.6474C8.60398 9.11856 10.056 7.92696 11.7547 7.2233C13.4535 6.51964 15.3228 6.33554 17.1262 6.69426C18.9296 7.05298 20.5862 7.93842 21.8864 9.23861C23.1866 10.5388 24.072 12.1953 24.4307 13.9988C24.7895 15.8022 24.6053 17.6715 23.9017 19.3703C23.198 21.069 22.0064 22.521 20.4776 23.5426C18.9487 24.5641 17.1512 25.1094 15.3125 25.1094C12.8476 25.1068 10.4844 24.1265 8.74141 22.3836C6.99846 20.6406 6.01815 18.2774 6.01562 15.8125Z" fill="white"/>
</svg>
