<svg width="25" height="25" viewBox="0 0 25 25" fill="none" xmlns="http://www.w3.org/2000/svg">
<path d="M23.7965 16.8074L17.9077 14.1686L17.8914 14.1611C17.5857 14.0304 17.2522 13.9779 16.9211 14.0085C16.59 14.039 16.2718 14.1516 15.9952 14.3361C15.9626 14.3576 15.9313 14.381 15.9014 14.4061L12.8589 16.9999C10.9314 16.0637 8.94135 14.0886 8.00509 12.1861L10.6026 9.09734C10.6276 9.06609 10.6514 9.03484 10.6739 9.00109C10.8544 8.72521 10.9639 8.40898 10.9927 8.08054C11.0215 7.7521 10.9687 7.42164 10.8389 7.11857V7.10357L8.19259 1.20476C8.02102 0.808836 7.72599 0.47902 7.35157 0.264548C6.97714 0.0500749 6.54339 -0.0375522 6.11507 0.0147472C4.42127 0.237633 2.86651 1.06947 1.74119 2.35489C0.615876 3.64031 -0.00305119 5.29141 1.13109e-05 6.99982C1.13109e-05 16.9249 8.07509 25 18.0002 25C19.7086 25.0031 21.3597 24.3841 22.6451 23.2588C23.9305 22.1335 24.7624 20.5787 24.9853 18.8849C25.0376 18.4568 24.9502 18.0231 24.736 17.6487C24.5217 17.2743 24.1922 16.9792 23.7965 16.8074ZM18.0002 23C13.7581 22.9953 9.69109 21.3081 6.69148 18.3085C3.69188 15.3089 2.00466 11.2419 2.00003 6.99982C1.99533 5.77916 2.4351 4.59854 3.23721 3.67842C4.03933 2.7583 5.14894 2.1616 6.35882 1.99977C6.35833 2.00475 6.35833 2.00978 6.35882 2.01477L8.98385 7.88982L6.40007 10.9824C6.37385 11.0125 6.35003 11.0447 6.32882 11.0786C6.14072 11.3673 6.03036 11.6996 6.00846 12.0434C5.98656 12.3873 6.05386 12.7309 6.20382 13.0411C7.33633 15.3574 9.67011 17.6737 12.0114 18.8049C12.3238 18.9535 12.6695 19.0185 13.0146 18.9935C13.3596 18.9685 13.6923 18.8544 13.9801 18.6624C14.0122 18.6408 14.0431 18.6174 14.0726 18.5924L17.1114 15.9999L22.9865 18.6312H23.0002C22.8404 19.8428 22.2446 20.9546 21.3243 21.7587C20.404 22.5628 19.2223 23.0041 18.0002 23Z" fill="white"/>
</svg>
