<svg width="18" height="20" viewBox="0 0 18 20" fill="none" xmlns="http://www.w3.org/2000/svg">
<path fill-rule="evenodd" clip-rule="evenodd" d="M10.9934 3.33301C10.9934 1.49301 12.4934 9.60172e-06 14.3414 9.60172e-06C14.7802 -0.00104223 15.2148 0.0843342 15.6206 0.251264C16.0263 0.418194 16.3952 0.663408 16.7062 0.972906C17.0172 1.2824 17.2642 1.65012 17.4331 2.05507C17.6019 2.46002 17.6894 2.89426 17.6904 3.33301C17.6904 5.17401 16.1904 6.66701 14.3414 6.66701C13.898 6.66756 13.4589 6.57996 13.0497 6.40932C12.6404 6.23868 12.2691 5.98839 11.9574 5.67301L7.32243 8.82901C7.45151 9.47201 7.38821 10.1388 7.14043 10.746L12.2224 14.086C12.821 13.5978 13.57 13.3318 14.3424 13.333C14.7812 13.3321 15.2158 13.4176 15.6215 13.5846C16.0272 13.7517 16.396 13.997 16.7069 14.3066C17.0178 14.6162 17.2647 14.984 17.4334 15.389C17.6022 15.794 17.6895 16.2283 17.6904 16.667C17.6904 18.507 16.1904 20 14.3414 20C13.4555 20.0019 12.6051 19.6518 11.9773 19.0268C11.3494 18.4017 10.9955 17.5529 10.9934 16.667C10.9927 16.1996 11.0912 15.7374 11.2824 15.311L6.24043 12C5.62984 12.5309 4.84755 12.8226 4.03843 12.821C3.59965 12.8221 3.16496 12.7366 2.7592 12.5696C2.35344 12.4026 1.98456 12.1573 1.67364 11.8477C1.36272 11.5381 1.11586 11.1702 0.947158 10.7652C0.778454 10.3601 0.691217 9.92579 0.69043 9.48701C0.691348 9.04831 0.778682 8.61409 0.947444 8.20915C1.11621 7.80421 1.36309 7.43648 1.67399 7.12697C1.9849 6.81746 2.35373 6.57223 2.75943 6.40528C3.16512 6.23834 3.59973 6.15296 4.03843 6.15401C5.10243 6.15401 6.04843 6.64701 6.66143 7.41501L11.1544 4.35601C11.0475 4.02554 10.9932 3.68034 10.9934 3.33301Z" fill="black"/>
</svg>
